Coordinates
version=1
nRows=14
nColumns=36
inDegrees=yes

Units are S.I. units (second, meters, Newtons, ...)
If the header above contains a line with 'inDegrees', this indicates whether rotational values are in degrees (yes) or radians (no).

endheader
time	pelvis_tilt	pelvis_list	pelvis_rotation	pelvis_tx	pelvis_ty	pelvis_tz	hip_flexion_r	hip_adduction_r	hip_rotation_r	knee_angle_r	knee_angle_r_beta	ankle_angle_r	subtalar_angle_r	mtp_angle_r	hip_flexion_l	hip_adduction_l	hip_rotation_l	knee_angle_l	knee_angle_l_beta	ankle_angle_l	subtalar_angle_l	mtp_angle_l	lumbar_extension	lumbar_bending	lumbar_rotation	arm_flex_r	arm_add_r	arm_rot_r	elbow_flex_r	pro_sup_r	arm_flex_l	arm_add_l	arm_rot_l	elbow_flex_l	pro_sup_l
      9.61666670	     11.62365648	     -7.17091101	      7.40510093	     -0.17266966	      0.92049493	     -0.08739197	     38.91879452	      1.40936500	     -9.22926754	     10.24809427	      0.17886299	    -15.31075632	     -3.41344239	     -7.49999987	     -3.49444370	     -2.85990121	     -7.40505474	     12.98543257	      0.22663855	      3.80598123	     -0.49565115	     -7.49999987	    -22.33211479	      6.64550517	     -8.32960648	     34.36039550	      4.05413246	     69.88829119	    121.82262712	     90.95915635	     46.47718632	      3.27724010	     67.74000643	    138.05726166	     73.92799181
      9.63333330	     11.45796130	     -6.79528159	      7.60541953	     -0.17440209	      0.92051718	     -0.08711744	     38.70380275	      1.07294398	     -9.52151604	      9.79906562	      0.17102596	    -15.22337032	     -3.23745273	     -7.49999987	     -3.84087016	     -2.32946760	     -7.30206111	     12.03572872	      0.21006309	      3.72157735	     -0.32237860	     -7.49999987	    -21.92185864	      6.52386712	     -8.55474820	     34.56895140	      4.14630992	     69.82916416	    121.88434281	     89.96018152	     46.46616283	      3.24712748	     67.68745354	    138.33538468	     73.17785991
      9.65000000	     11.35624073	     -6.54447223	      7.74446826	     -0.17810046	      0.92096024	     -0.08683867	     38.49416593	      0.93580042	     -9.39452083	      9.81616565	      0.17132441	    -14.95324877	     -3.24966711	     -7.49999987	     -3.70484610	     -1.98819769	     -6.95650061	     12.06355586	      0.21054877	      3.48350287	     -0.33657784	     -7.49999987	    -21.86287991	      6.45457269	     -8.55482384	     35.05034563	      4.22155365	     69.64758186	    121.96348421	     90.01326222	     46.74421053	      3.44915361	     67.84307972	    138.46864979	     73.25109862
      9.66666670	     11.28591576	     -6.63382817	      7.65334474	     -0.17471289	      0.91895325	     -0.08810562	     38.25862694	      1.17757095	     -9.26595655	     10.14127235	      0.17699859	    -14.63289457	     -3.53346767	     -7.49999987	     -3.77462471	     -2.00898521	     -6.80501775	     11.77486582	      0.20551018	      3.60933574	     -0.43141856	     -7.49999987	    -21.53810265	      6.80338288	     -8.59582962	     35.04723986	      4.23027418	     69.70640798	    122.29409356	     90.04117436	     46.79172798	      3.49242118	     67.91189316	    138.47842038	     73.28756701
      9.68333330	     11.01154951	     -6.68361738	      7.32212004	     -0.17207103	      0.92125006	     -0.08855810	     38.08166378	      1.63230252	     -8.86650158	     10.13096066	      0.17681862	    -14.68487747	     -3.91024802	     -7.49999987	     -3.73325495	     -1.93390107	     -6.96486933	     11.41945183	      0.19930703	      3.22240111	     -0.59821844	     -7.49999987	    -21.14969320	      6.95692895	     -8.38447856	     34.50293374	      3.80780708	     69.81388741	    123.08462327	     91.69874082	     46.42131373	      3.68406446	     68.18815627	    138.40356092	     74.60275143
      9.70000000	     10.94983926	     -6.46555832	      7.23358945	     -0.17321519	      0.92134214	     -0.08864315	     37.69090407	      1.77751496	     -8.74144128	      9.57264039	      0.16707409	    -14.70577696	     -2.71345711	     -7.49999987	     -3.73071217	     -1.62396430	     -7.07617169	     11.30457605	      0.19730207	      3.00719222	     -0.74953358	     -7.49999987	    -20.91720758	      6.93226390	     -8.32459059	     33.98717194	      3.52575476	     69.81522705	    123.39444004	     90.08443756	     46.05169864	      3.77897534	     68.35466618	    138.31871631	     73.73581324
      9.71666670	     11.02640621	     -6.30214289	      7.09300890	     -0.17100613	      0.91887055	     -0.08888124	     37.21456594	      1.97743725	     -8.68510000	      9.25516483	      0.16153310	    -14.54155766	     -1.80480842	     -7.49999987	     -3.97511480	     -1.43330445	     -7.02794069	     11.16726878	      0.19490561	      2.73831479	     -1.21168701	     -7.49999987	    -20.71613591	      6.93856209	     -8.26692385	     33.74069289	      3.30095491	     69.82843723	    123.74295073	     88.49661970	     45.82957653	      3.78971997	     68.27848629	    138.07306808	     73.07794687
      9.73333330	     10.89403677	     -6.16238041	      7.02238146	     -0.17791073	      0.91930186	     -0.08859295	     37.14769590	      2.12151737	     -8.14925181	      9.25534809	      0.16153630	    -14.74071434	     -1.43058249	     -7.49999987	     -3.68706112	     -1.17809854	     -6.64073612	     11.50257222	      0.20075776	      3.04691076	     -0.93957778	     -7.49999987	    -20.74272559	      7.00311271	     -8.29044865	     34.03391592	      3.34567526	     69.77289327	    123.69454582	     88.58652872	     46.01598697	      3.84663315	     68.22302611	    137.92147970	     73.10017383
      9.75000000	     10.84604214	     -6.22541191	      6.87788483	     -0.17472684	      0.91921720	     -0.08988536	     36.89983192	      2.46483523	     -7.11200334	      9.82006737	      0.17139251	    -14.19236170	     -1.22029223	     -7.49999987	     -3.22071137	     -1.26043410	     -7.00192119	     11.93772024	      0.20835252	      2.62921762	     -1.11765696	     -7.49999987	    -20.65463063	      7.25940417	     -8.29831259	     34.34308965	      3.15932789	     69.50464376	    123.15723681	     88.63735879	     46.10897420	      3.73285443	     68.03422426	    137.42777697	     73.08314421
      9.76666670	     10.65128115	     -6.04727406	      6.82458546	     -0.17504471	      0.91720196	     -0.09009017	     36.77211685	      2.56064897	     -6.65119845	      9.64868196	      0.16840127	    -13.84053966	     -1.07254914	     -7.49999987	     -2.80111291	     -1.05324796	     -6.98838953	     12.64316288	      0.22066482	      3.04202585	     -1.31249163	     -7.49999987	    -20.29702899	      7.25138492	     -8.64316402	     34.69492893	      3.23436105	     69.21245282	    122.62495868	     91.27740347	     46.14678786	      3.57518981	     67.51005369	    137.23507210	     73.49076004
      9.78333330	     10.54481123	     -6.14673174	      6.62760899	     -0.17305151	      0.91723697	     -0.09028499	     36.71796170	      2.97216241	     -5.96787766	     10.20445358	      0.17810131	    -13.48197089	     -1.58810031	     -7.49999987	     -2.44727060	     -1.20264258	     -6.92869910	     13.51101608	      0.23581172	      3.54128303	     -1.54755707	     -7.49999987	    -20.22197974	      7.65474760	     -8.74643833	     34.86819351	      3.31346727	     69.53547381	    122.11795867	     90.17672640	     45.92446819	      3.32876779	     67.12819096	    137.16048196	     73.03103491
      9.80000000	     10.51374025	     -6.01861700	      6.74534148	     -0.17309475	      0.91743571	     -0.09005738	     36.40398258	      3.13415419	     -5.51700931	     10.40238029	      0.18155579	    -13.01731844	     -1.35165157	     -7.49999987	     -2.27866810	     -1.09508009	     -7.15821146	     13.84201629	      0.24158876	      3.74786595	     -1.62256843	     -7.49999987	    -19.97042976	      7.74731686	     -9.15868423	     34.85308226	      3.43279491	     69.84838277	    121.90990911	     88.75567182	     45.97460039	      3.21618887	     66.88270438	    136.99061019	     72.20100917
      9.81666670	     10.34060778	     -5.74715135	      6.67695936	     -0.17417413	      0.91653574	     -0.08984438	     36.30010388	      3.16628456	     -5.11885394	     10.66402987	      0.18612243	    -12.74762654	     -0.87516539	     -7.49999987	     -2.09573362	     -0.72524400	     -7.35895352	     13.83739698	      0.24150814	      3.25263268	     -1.79370170	     -7.49999987	    -19.78678195	      7.64468069	     -9.25763344	     34.92660236	      3.52571468	     69.93400098	    121.67208908	     87.90486964	     45.90734384	      3.34370652	     67.03653578	    137.03129045	     71.78420949
      9.83333330	     10.23885159	     -5.42781834	      6.63044890	     -0.17390548	      0.91608971	     -0.09068131	     36.02759238	      3.07970706	     -4.87672027	     10.81448315	      0.18874834	    -12.70223162	     -0.76505129	     -7.49999987	     -2.13898670	     -0.34157439	     -7.57419874	     13.66953475	      0.23857839	      3.15220483	     -1.49988796	     -7.49999987	    -19.61759374	      7.52295142	     -9.49118866	     35.05496892	      3.69333884	     70.26011276	    121.41529481	     86.97332120	     45.90463286	      3.34112292	     67.11426879	    137.00173418	     71.29849575
